<svg width="32" height="31" viewBox="0 0 32 31" fill="none" xmlns="http://www.w3.org/2000/svg">
<path d="M26.0967 29.4234H5.64287C3.39947 29.4234 1.56885 27.5868 1.56885 25.3494V6.07402C1.56885 3.83062 3.40545 2 5.64287 2H26.0967C28.3401 2 30.1708 3.8366 30.1708 6.07402V25.3494C30.1708 27.5928 28.3401 29.4234 26.0967 29.4234Z" stroke="white" stroke-width="2" stroke-miterlimit="10"/>
<path d="M7.5336 9.41828C8.06885 9.41828 8.50275 8.98438 8.50275 8.44913C8.50275 7.91388 8.06885 7.47998 7.5336 7.47998C6.99836 7.47998 6.56445 7.91388 6.56445 8.44913C6.56445 8.98438 6.99836 9.41828 7.5336 9.41828Z" fill="white" stroke="white" stroke-width="2" stroke-miterlimit="10"/>
<path d="M7.50968 16.4954C8.04493 16.4954 8.47883 16.0615 8.47883 15.5263C8.47883 14.991 8.04493 14.5571 7.50968 14.5571C6.97443 14.5571 6.54053 14.991 6.54053 15.5263C6.54053 16.0615 6.97443 16.4954 7.50968 16.4954Z" fill="white" stroke="white" stroke-width="2" stroke-miterlimit="10"/>
<path d="M7.5214 23.6564C8.05664 23.6564 8.49055 23.2225 8.49055 22.6873C8.49055 22.152 8.05664 21.7181 7.5214 21.7181C6.98615 21.7181 6.55225 22.152 6.55225 22.6873C6.55225 23.2225 6.98615 23.6564 7.5214 23.6564Z" fill="white" stroke="white" stroke-width="2" stroke-miterlimit="10"/>
<path d="M10.9194 8.4491H26.8087" stroke="white" stroke-width="3" stroke-miterlimit="10"/>
<path d="M10.9194 15.6281H26.8087" stroke="white" stroke-width="3" stroke-miterlimit="10"/>
<path d="M10.9912 22.7291H26.8805" stroke="white" stroke-width="3" stroke-miterlimit="10"/>
</svg>
