<svg width="257" height="42" viewBox="0 0 257 42" fill="none" xmlns="http://www.w3.org/2000/svg">
<path d="M32.4806 0L26.3463 41.1794H20.7853L16.2709 14.4596H16.154L11.6952 41.1794H6.13429L0 0H6.25118L9.20143 26.1399H9.31833L13.9552 0H18.4697L23.2736 26.78H23.3905L26.2294 0H32.4806Z" fill="white"/>
<path d="M38.676 41.1794V0H44.5821V41.1794H38.676Z" fill="white"/>
<path d="M56.5112 41.1794V5.55295H49.6755V0H69.2474V5.55295H62.4173V41.1794H56.5112Z" fill="white"/>
<path d="M74.168 41.1794V0H80.074V17.6381H87.3717V0H93.2778V41.1794H87.3717V22.8464H80.074V41.1794H74.168Z" fill="white"/>
<path d="M101.149 41.1794V0H109.894C113.29 0 115.867 0.92458 117.626 2.77374C119.379 4.6229 120.259 7.24893 120.259 10.6409V29.8984C120.259 33.7554 119.324 36.6002 117.453 38.4275C115.583 40.2603 112.889 41.1739 109.376 41.1739H101.149V41.1794ZM107.055 5.55295V35.6264H109.777C111.436 35.6264 112.616 35.2106 113.312 34.3845C114.008 33.5584 114.353 32.2564 114.353 30.4783V10.6409C114.353 9.02149 114.024 7.76866 113.368 6.88238C112.711 5.99609 111.514 5.55295 109.777 5.55295H107.055Z" fill="white"/>
<path d="M128.13 41.1794V0H137.626C144.573 0 148.047 4.03204 148.047 12.0852C148.047 14.5143 147.668 16.5768 146.917 18.2728C146.165 19.9687 144.841 21.3365 142.948 22.3814L149.316 41.1794H143.065L137.565 23.5959H134.036V41.1794H128.13ZM134.036 5.55295V18.3931H137.393C138.433 18.3931 139.263 18.2509 139.881 17.9609C140.499 17.671 140.983 17.2606 141.328 16.719C141.64 16.1774 141.851 15.5154 141.963 14.7222C142.08 13.9344 142.135 13.0152 142.135 11.9758C142.135 10.9363 142.08 10.0172 141.963 9.22939C141.846 8.44158 141.618 7.75225 141.267 7.1778C140.532 6.10004 139.14 5.55842 137.098 5.55842H134.036V5.55295Z" fill="white"/>
<path d="M152.45 41.1794L161.657 0H166.578L175.785 41.1794H169.879L168.142 32.3275H160.093L158.356 41.1794H152.45ZM167.04 26.78L164.145 11.8554H164.028L161.134 26.78H167.04Z" fill="white"/>
<path d="M209.484 0L203.345 41.1794H197.789L193.275 14.4596H193.158L188.699 41.1794H183.138L176.998 0H183.249L186.2 26.1399H186.317L190.954 0H195.468L200.272 26.78H200.394L203.228 0H209.484Z" fill="white"/>
<path d="M215.274 41.1794V0H220.946L229.863 24.8105H229.98V0H235.886V41.1794H230.325L221.291 16.4236H221.174V41.1794H215.274Z" fill="white"/>
<path d="M243.93 39.746C242.46 38.247 241.726 36.4362 241.726 34.3189C241.726 32.2017 242.46 30.4127 243.93 28.941C245.399 27.4748 247.192 26.7363 249.313 26.7363C251.428 26.7363 253.243 27.4694 254.746 28.941C256.249 30.4127 257 32.2017 257 34.3189C257 36.4362 256.249 38.247 254.746 39.746C253.243 41.2451 251.428 42 249.313 42C247.192 42 245.399 41.2451 243.93 39.746Z" fill="white"/>
</svg>
